<svg width="32" height="24" viewBox="0 0 32 24" fill="none" xmlns="http://www.w3.org/2000/svg">
<g clip-path="url(#clip0_6017_142)">
<path d="M32 23.989C32 23.9951 31.9951 24 31.989 24V24C31.9832 24 31.9783 23.9953 31.9781 23.9894C31.4478 10.6509 20.4686 0 7 0H-251.482C-256.546 0 -260.705 -3.83269 -262.189 -8.67389C-268.459 -29.1276 -287.492 -44 -310 -44H-1337C-1359.51 -44 -1378.54 -29.1276 -1384.81 -8.67388C-1386.3 -3.83268 -1390.45 0 -1395.52 0H-1863C-1876.47 0 -1887.45 10.6509 -1887.98 23.9894C-1887.98 23.9953 -1887.98 24 -1887.99 24V24C-1888 24 -1888 23.9951 -1888 23.989V-61C-1888 -66.5228 -1883.52 -71 -1878 -71H22C27.5229 -71 32 -66.5228 32 -61V23.989Z" fill="#7027E2"/>
</g>
<defs>
<clipPath id="clip0_6017_142">
<rect width="32" height="24" fill="white"/>
</clipPath>
</defs>
</svg>
